# xmcd
#
# Track frame offsets:
#	150
#	3539
#	58982
#	65682
#	122657
#	130974
#	157554
#	161277
#	223444
#	226376
#	293938
#	299725
#	349237
#
# Disc length: 4707 seconds
#
# Revision: 1
# Processed by: cddbd v1.5.2PL0 Copyright (c) Steve Scherf et al.
# Submitted via: audiograbber 1.83.01
#
DISCID=cf12610d
DTITLE=Lyn Collins - Mama Feelgood
DYEAR=2006
DGENRE=Funk
TTITLE0=Intro
TTITLE1=You Don't Work
TTITLE2=Itw
TTITLE3=Think (about it)
TTITLE4=Itw
TTITLE5=Put It On The Line
TTITLE6=Itw
TTITLE7=Mama Feelgood
TTITLE8=Itw
TTITLE9=Rock Me
TTITLE10=Itw
TTITLE11=Summertime
TTITLE12=Outro
EXTD=
EXTT0=
EXTT1=
EXTT2=
EXTT3=
EXTT4=
EXTT5=
EXTT6=
EXTT7=
EXTT8=
EXTT9=
EXTT10=
EXTT11=
EXTT12=
PLAYORDER=
